<svg width="16" height="16" viewBox="0 0 16 16" fill="none" xmlns="http://www.w3.org/2000/svg">
<path fill-rule="evenodd" clip-rule="evenodd" d="M8.75339 2.24743L8.00039 3.00043L7.24739 2.24743C6.44784 1.46919 5.37394 1.03721 4.25821 1.04503C3.14248 1.05284 2.07473 1.49982 1.28617 2.28917C0.497604 3.07852 0.0516955 4.14672 0.0449984 5.26245C0.0383013 6.37819 0.471355 7.45166 1.25039 8.25042L6.94039 13.9404L8.00039 15.0004L9.06039 13.9404L14.7504 8.25042C15.5294 7.45166 15.9625 6.37819 15.9558 5.26245C15.9491 4.14672 15.5032 3.07852 14.7146 2.28917C13.926 1.49982 12.8583 1.05284 11.7426 1.04503C10.6268 1.03721 9.55293 1.46919 8.75339 2.24743ZM8.00039 12.8794L13.6904 7.18942C14.1967 6.67358 14.479 5.97872 14.4758 5.25591C14.4726 4.5331 14.1843 3.84076 13.6734 3.32938C13.1626 2.81801 12.4705 2.52894 11.7477 2.52502C11.0249 2.52109 10.3298 2.80263 9.81339 3.30843L9.06139 4.06143L8.00039 5.12042L6.94039 4.06043L6.18739 3.30843V3.30743C5.6726 2.7933 4.97467 2.50474 4.24712 2.5052C3.51957 2.50567 2.82201 2.79514 2.30789 3.30993C1.79376 3.82471 1.5052 4.52265 1.50567 5.25019C1.50613 5.97774 1.7956 6.6753 2.31039 7.18942L8.00039 12.8804V12.8794Z" fill="black"/>
</svg>
