<svg width="8" height="16" viewBox="0 0 8 16" fill="none" xmlns="http://www.w3.org/2000/svg">
<path d="M4 1C3.60218 1 3.22064 1.15804 2.93934 1.43934C2.65804 1.72064 2.5 2.10218 2.5 2.5C2.5 2.89782 2.65804 3.27936 2.93934 3.56066C3.22064 3.84196 3.60218 4 4 4C4.39782 4 4.77936 3.84196 5.06066 3.56066C5.34196 3.27936 5.5 2.89782 5.5 2.5C5.5 2.10218 5.34196 1.72064 5.06066 1.43934C4.77936 1.15804 4.39782 1 4 1ZM1.5 2.5C1.5 1.83696 1.76339 1.20107 2.23223 0.732233C2.70107 0.263392 3.33696 0 4 0C4.66304 0 5.29893 0.263392 5.76777 0.732233C6.23661 1.20107 6.5 1.83696 6.5 2.5C6.5 3.16304 6.23661 3.79893 5.76777 4.26777C5.29893 4.73661 4.66304 5 4 5C3.33696 5 2.70107 4.73661 2.23223 4.26777C1.76339 3.79893 1.5 3.16304 1.5 2.5ZM1.25 6C0.56 6 0 6.56 0 7.25V12C0 13.0609 0.421427 14.0783 1.17157 14.8284C1.92172 15.5786 2.93913 16 4 16C5.06087 16 6.07828 15.5786 6.82843 14.8284C7.57857 14.0783 8 13.0609 8 12V7.25C8 6.56 7.44 6 6.75 6H1.25ZM1 7.25C1 7.1837 1.02634 7.12011 1.07322 7.07322C1.12011 7.02634 1.1837 7 1.25 7H6.75C6.8163 7 6.87989 7.02634 6.92678 7.07322C6.97366 7.12011 7 7.1837 7 7.25V12C7 12.7956 6.68393 13.5587 6.12132 14.1213C5.55871 14.6839 4.79565 15 4 15C3.20435 15 2.44129 14.6839 1.87868 14.1213C1.31607 13.5587 1 12.7956 1 12V7.25Z" fill="black"/>
</svg>
