<svg width="32" height="32" viewBox="0 0 32 32" fill="none" xmlns="http://www.w3.org/2000/svg">
<rect width="32" height="32" fill="black"/>
<path d="M15.9463 6C21.9934 6 26.8947 9.74115 26.8947 14.3573C26.8947 18.9725 21.9934 22.7137 15.9474 22.7137C15.3453 22.7139 14.7439 22.6764 14.1468 22.6014L9.55098 25.5451C9.02863 25.8156 8.84409 25.786 9.05887 25.1234L9.98887 21.3679C6.98617 19.8772 5 17.2939 5 14.3573C5 9.74217 9.90025 6 15.9474 6H15.9463ZM22.1061 14.2297L23.6387 12.7757C23.7271 12.6858 23.7765 12.5657 23.7763 12.4409C23.7761 12.316 23.7265 12.1961 23.6379 12.1063C23.5492 12.0166 23.4284 11.9641 23.301 11.9598C23.1736 11.9555 23.0494 11.9999 22.9547 12.0835L20.9446 13.9887V12.4143C20.9446 12.2865 20.8927 12.1639 20.8004 12.0735C20.7082 11.9831 20.583 11.9323 20.4525 11.9323C20.322 11.9323 20.1968 11.9831 20.1045 12.0735C20.0122 12.1639 19.9604 12.2865 19.9604 12.4143V15.0251C19.942 15.0996 19.942 15.1773 19.9604 15.2518V16.7211C19.9604 16.8489 20.0122 16.9715 20.1045 17.0619C20.1968 17.1523 20.322 17.203 20.4525 17.203C20.583 17.203 20.7082 17.1523 20.8004 17.0619C20.8927 16.9715 20.9446 16.8489 20.9446 16.7211V15.3294L21.3898 14.9077L22.8786 16.9835C22.9158 17.0353 22.963 17.0795 23.0176 17.1134C23.0722 17.1474 23.1331 17.1705 23.1968 17.1814C23.2605 17.1923 23.3258 17.1908 23.3889 17.177C23.452 17.1632 23.5117 17.1373 23.5647 17.1009C23.6176 17.0645 23.6627 17.0183 23.6973 16.9648C23.732 16.9113 23.7556 16.8517 23.7667 16.7893C23.7778 16.7269 23.7763 16.663 23.7622 16.6012C23.7481 16.5394 23.7217 16.4809 23.6846 16.4291L22.1061 14.2287V14.2297ZM19.022 16.1942H17.4998V12.4296C17.494 12.3057 17.4396 12.1889 17.3481 12.1032C17.2565 12.0176 17.1348 11.9698 17.0082 11.9698C16.8816 11.9698 16.7599 12.0176 16.6683 12.1032C16.5768 12.1889 16.5225 12.3057 16.5166 12.4296V16.6762C16.5166 16.9416 16.7356 17.1581 17.0077 17.1581H19.022C19.1525 17.1581 19.2777 17.1073 19.37 17.0169C19.4623 16.9266 19.5141 16.804 19.5141 16.6762C19.5141 16.5483 19.4623 16.4258 19.37 16.3354C19.2777 16.245 19.1525 16.1942 19.022 16.1942ZM12.9155 15.0803L13.6411 13.3363L14.3063 15.0792L12.9155 15.0803ZM15.546 15.5775L15.5481 15.5612C15.5478 15.4398 15.5005 15.323 15.4156 15.2344L14.3251 12.3755C14.2794 12.2392 14.1923 12.1199 14.0755 12.0334C13.9587 11.9469 13.8177 11.8974 13.6714 11.8915C13.524 11.8909 13.3799 11.9342 13.2583 12.0157C13.1367 12.0973 13.0433 12.2131 12.9905 12.3479L11.2577 16.5087C11.2084 16.627 11.209 16.7597 11.2596 16.8776C11.3101 16.9955 11.4064 17.0888 11.5272 17.1372C11.6481 17.1855 11.7836 17.1849 11.9039 17.1354C12.0243 17.0859 12.1196 16.9916 12.169 16.8732L12.5151 16.0431H14.6733L14.984 16.86C15.0052 16.921 15.0387 16.9773 15.0825 17.0254C15.1263 17.0736 15.1795 17.1126 15.239 17.1403C15.2985 17.1679 15.3631 17.1836 15.4289 17.1863C15.4947 17.1891 15.5603 17.1789 15.622 17.1563C15.6837 17.1338 15.7402 17.0993 15.788 17.055C15.8359 17.0107 15.8741 16.9575 15.9006 16.8984C15.927 16.8393 15.9411 16.7757 15.942 16.7112C15.9429 16.6467 15.9305 16.5827 15.9057 16.523L15.546 15.5775ZM12.0824 12.4347C12.0824 12.3071 12.0307 12.1846 11.9387 12.0943C11.8466 12.0039 11.7217 11.953 11.5914 11.9528H8.2081C8.07759 11.9528 7.95241 12.0035 7.86013 12.0939C7.76784 12.1843 7.71599 12.3069 7.71599 12.4347C7.71599 12.5625 7.76784 12.6851 7.86013 12.7755C7.95241 12.8659 8.07759 12.9166 8.2081 12.9166H9.41752V16.7313C9.41752 16.8591 9.46937 16.9817 9.56166 17.0721C9.65395 17.1625 9.77912 17.2132 9.90964 17.2132C10.0402 17.2132 10.1653 17.1625 10.2576 17.0721C10.3499 16.9817 10.4017 16.8591 10.4017 16.7313V12.9166H11.5903C11.7208 12.9166 11.846 12.8659 11.9383 12.7755C12.0306 12.6851 12.0824 12.5625 12.0824 12.4347Z" fill="white"/>
</svg>
