<svg width="32" height="32" viewBox="0 0 32 32" fill="none" xmlns="http://www.w3.org/2000/svg">
<path d="M24 21.3547C25.66 22.0601 26.6667 22.9854 26.6667 24.0001C26.6667 26.2094 21.8907 28.0001 16 28.0001C10.1094 28.0001 5.33337 26.2094 5.33337 24.0001C5.33337 22.9867 6.34004 22.0587 8.00004 21.3547" stroke="black" stroke-width="2" stroke-linecap="round" stroke-linejoin="round"/>
<path fill-rule="evenodd" clip-rule="evenodd" d="M16.984 23.5667L16.9907 23.5601L17.0067 23.5414L17.0667 23.4747L17.288 23.2267C18.3959 21.9649 19.4408 20.6491 20.4187 19.2841C21.2747 18.0841 22.152 16.7241 22.82 15.3734C23.4733 14.0534 24 12.6014 24 11.2587C24 6.49475 20.5093 2.66675 16 2.66675C11.4907 2.66675 8 6.49341 8 11.2587C8 12.6014 8.52667 14.0534 9.18 15.3734C9.848 16.7241 10.7267 18.0841 11.58 19.2841C12.6233 20.739 13.7426 22.1378 14.9333 23.4747L14.9933 23.5414L15.0093 23.5601L15.016 23.5667C15.1409 23.7034 15.2929 23.8125 15.4624 23.8871C15.6318 23.9618 15.8149 24.0003 16 24.0003C16.1851 24.0003 16.3682 23.9618 16.5376 23.8871C16.7071 23.8125 16.8591 23.7034 16.984 23.5667ZM16 8.00008C15.2928 8.00008 14.6145 8.28103 14.1144 8.78113C13.6143 9.28123 13.3333 9.9595 13.3333 10.6667C13.3333 11.374 13.6143 12.0523 14.1144 12.5524C14.6145 13.0525 15.2928 13.3334 16 13.3334C16.7072 13.3334 17.3855 13.0525 17.8856 12.5524C18.3857 12.0523 18.6667 11.374 18.6667 10.6667C18.6667 9.9595 18.3857 9.28123 17.8856 8.78113C17.3855 8.28103 16.7072 8.00008 16 8.00008Z" fill="black"/>
</svg>
