<svg width="30" height="32" viewBox="0 0 30 32" fill="none" xmlns="http://www.w3.org/2000/svg">
<path d="M5.83256 9.33321C5.83289 7.75307 6.24168 6.19985 7.01926 4.82426C7.79684 3.44868 8.9168 2.29746 10.2705 1.48232C11.6241 0.66718 13.1655 0.215799 14.745 0.171983C16.3246 0.128166 17.8886 0.493401 19.2854 1.23225C20.6822 1.97109 21.8642 3.05845 22.7169 4.38881C23.5695 5.71917 24.0638 7.24734 24.1517 8.82504C24.2396 10.4027 23.9182 11.9764 23.2187 13.3932C22.5192 14.8101 21.4652 16.0221 20.1592 16.9115C22.9717 17.9431 25.4112 19.7927 27.1636 22.2224C28.9161 24.6521 29.9013 27.5506 29.9926 30.5449C29.9887 30.8677 29.8602 31.1766 29.634 31.4069C29.4077 31.6373 29.1012 31.7713 28.7785 31.7809C28.4558 31.7906 28.1418 31.6752 27.9022 31.4589C27.6625 31.2425 27.5158 30.9419 27.4926 30.6199C27.3933 27.3723 26.0335 24.291 23.7012 22.0289C21.3689 19.7668 18.2475 18.5017 14.9984 18.5017C11.7493 18.5017 8.62789 19.7668 6.29561 22.0289C3.96333 24.291 2.60348 27.3723 2.50423 30.6199C2.48754 30.9463 2.34369 31.2531 2.10349 31.4748C1.8633 31.6964 1.54586 31.8151 1.21918 31.8055C0.89251 31.7959 0.582582 31.6588 0.355797 31.4235C0.129013 31.1881 0.00340954 30.8734 0.00589559 30.5465C0.0968145 27.5519 1.08191 24.6531 2.83437 22.2231C4.58684 19.7931 7.02647 17.9432 9.83923 16.9115C8.60395 16.0709 7.59305 14.9409 6.89468 13.62C6.19631 12.2991 5.83168 10.8274 5.83256 9.33321ZM14.9992 2.66655C13.2311 2.66655 11.5354 3.36893 10.2852 4.61917C9.03494 5.86941 8.33256 7.5651 8.33256 9.33321C8.33256 11.1013 9.03494 12.797 10.2852 14.0473C11.5354 15.2975 13.2311 15.9999 14.9992 15.9999C16.7673 15.9999 18.463 15.2975 19.7133 14.0473C20.9635 12.797 21.6659 11.1013 21.6659 9.33321C21.6659 7.5651 20.9635 5.86941 19.7133 4.61917C18.463 3.36893 16.7673 2.66655 14.9992 2.66655Z" fill="black"/>
</svg>
