<svg width="60" height="60" viewBox="0 0 60 60" fill="none" xmlns="http://www.w3.org/2000/svg">
<path d="M43.25 15H17C13.0218 15 9.20644 16.5804 6.3934 19.3934C3.58035 22.2064 2 26.0218 2 30C2 33.9782 3.58035 37.7936 6.3934 40.6066C9.20644 43.4196 13.0218 45 17 45H43.25C47.2282 45 51.0436 43.4196 53.8566 40.6066C56.6696 37.7936 58.25 33.9782 58.25 30C58.25 26.0218 56.6696 22.2064 53.8566 19.3934C51.0436 16.5804 47.2282 15 43.25 15ZM43.25 41.25H17C14.0163 41.25 11.1548 40.0647 9.04505 37.955C6.93526 35.8452 5.75 32.9837 5.75 30C5.75 27.0163 6.93526 24.1548 9.04505 22.045C11.1548 19.9353 14.0163 18.75 17 18.75H43.25C46.2337 18.75 49.0952 19.9353 51.205 22.045C53.3147 24.1548 54.5 27.0163 54.5 30C54.5 32.9837 53.3147 35.8452 51.205 37.955C49.0952 40.0647 46.2337 41.25 43.25 41.25Z" fill="black"/>
<path d="M40.5 22.5C39.0166 22.5 37.5666 22.9399 36.3332 23.764C35.0999 24.5881 34.1386 25.7594 33.5709 27.1299C33.0032 28.5003 32.8547 30.0083 33.1441 31.4632C33.4335 32.918 34.1478 34.2544 35.1967 35.3033C36.2456 36.3522 37.582 37.0665 39.0368 37.3559C40.4917 37.6453 41.9997 37.4968 43.3701 36.9291C44.7406 36.3614 45.9119 35.4001 46.736 34.1668C47.5601 32.9334 48 31.4834 48 30C47.9978 28.0116 47.2069 26.1052 45.8008 24.6992C44.3948 23.2931 42.4884 22.5022 40.5 22.5ZM40.5 33.75C39.7583 33.75 39.0333 33.5301 38.4166 33.118C37.7999 32.706 37.3193 32.1203 37.0355 31.4351C36.7516 30.7498 36.6774 29.9958 36.8221 29.2684C36.9668 28.541 37.3239 27.8728 37.8484 27.3484C38.3728 26.8239 39.041 26.4667 39.7684 26.3221C40.4958 26.1774 41.2498 26.2516 41.9351 26.5355C42.6203 26.8193 43.206 27.2999 43.618 27.9166C44.0301 28.5333 44.25 29.2583 44.25 30C44.2489 30.9942 43.8534 31.9474 43.1504 32.6504C42.4474 33.3534 41.4942 33.7489 40.5 33.75Z" fill="black"/>
</svg>
