<svg width="60" height="60" viewBox="0 0 60 60" fill="none" xmlns="http://www.w3.org/2000/svg">
<path d="M14.6716 26.6716L15.7322 27.7322L14.6716 26.6716C13.9214 27.4217 13.5 28.4391 13.5 29.5C13.5 30.5609 13.9214 31.5783 14.6716 32.3284C15.4217 33.0786 16.4391 33.5 17.5 33.5C18.5609 33.5 19.5783 33.0786 20.3284 32.3284C21.0786 31.5783 21.5 30.5609 21.5 29.5C21.5 28.4391 21.0786 27.4217 20.3284 26.6716C19.5783 25.9214 18.5609 25.5 17.5 25.5C16.4391 25.5 15.4217 25.9214 14.6716 26.6716Z" fill="black" stroke="black" stroke-width="3" stroke-linecap="round" stroke-linejoin="round"/>
<path d="M42.5 41H17.5C14.45 41 11.5249 39.7884 9.36827 37.6317C7.2116 35.4751 6 32.55 6 29.5C6 26.45 7.2116 23.5249 9.36827 21.3683C11.5249 19.2116 14.45 18 17.5 18H42.5C45.55 18 48.4751 19.2116 50.6317 21.3683C52.7884 23.5249 54 26.45 54 29.5C54 32.55 52.7884 35.4751 50.6317 37.6317C48.4751 39.7884 45.55 41 42.5 41Z" stroke="black" stroke-width="2"/>
</svg>
