<svg width="60" height="60" viewBox="0 0 60 60" fill="none" xmlns="http://www.w3.org/2000/svg">
<path d="M39.6716 26.6716L40.7322 27.7322L39.6716 26.6716C38.9214 27.4217 38.5 28.4391 38.5 29.5C38.5 30.5609 38.9214 31.5783 39.6716 32.3284C40.4217 33.0786 41.4391 33.5 42.5 33.5C43.5609 33.5 44.5783 33.0786 45.3284 32.3284C46.0786 31.5783 46.5 30.5609 46.5 29.5C46.5 28.4391 46.0786 27.4217 45.3284 26.6716C44.5783 25.9214 43.5609 25.5 42.5 25.5C41.4391 25.5 40.4217 25.9214 39.6716 26.6716Z" fill="black" stroke="black" stroke-width="3" stroke-linecap="round" stroke-linejoin="round"/>
<path d="M42.5 41H17.5C14.45 41 11.5249 39.7884 9.36827 37.6317C7.2116 35.4751 6 32.55 6 29.5C6 26.45 7.2116 23.5249 9.36827 21.3683C11.5249 19.2116 14.45 18 17.5 18H42.5C45.55 18 48.4751 19.2116 50.6317 21.3683C52.7884 23.5249 54 26.45 54 29.5C54 32.55 52.7884 35.4751 50.6317 37.6317C48.4751 39.7884 45.55 41 42.5 41Z" stroke="black" stroke-width="2"/>
</svg>
