<svg width="60" height="60" viewBox="0 0 60 60" fill="none" xmlns="http://www.w3.org/2000/svg">
<path d="M43.25 15H17C13.0218 15 9.20644 16.5804 6.3934 19.3934C3.58035 22.2064 2 26.0218 2 30C2 33.9782 3.58035 37.7936 6.3934 40.6066C9.20644 43.4196 13.0218 45 17 45H43.25C47.2282 45 51.0436 43.4196 53.8566 40.6066C56.6696 37.7936 58.25 33.9782 58.25 30C58.25 26.0218 56.6696 22.2064 53.8566 19.3934C51.0436 16.5804 47.2282 15 43.25 15ZM43.25 41.25H17C14.0163 41.25 11.1548 40.0647 9.04505 37.955C6.93526 35.8452 5.75 32.9837 5.75 30C5.75 27.0163 6.93526 24.1548 9.04505 22.045C11.1548 19.9353 14.0163 18.75 17 18.75H43.25C46.2337 18.75 49.0952 19.9353 51.205 22.045C53.3147 24.1548 54.5 27.0163 54.5 30C54.5 32.9837 53.3147 35.8452 51.205 37.955C49.0952 40.0647 46.2337 41.25 43.25 41.25Z" fill="black"/>
<path d="M19.5 22.5C18.0166 22.5 16.5666 22.9399 15.3332 23.764C14.0999 24.5881 13.1386 25.7594 12.5709 27.1299C12.0032 28.5003 11.8547 30.0083 12.1441 31.4632C12.4335 32.918 13.1478 34.2544 14.1967 35.3033C15.2456 36.3522 16.582 37.0665 18.0368 37.3559C19.4917 37.6453 20.9997 37.4968 22.3701 36.9291C23.7406 36.3614 24.9119 35.4001 25.736 34.1668C26.5601 32.9334 27 31.4834 27 30C26.9978 28.0116 26.2069 26.1052 24.8008 24.6992C23.3948 23.2931 21.4884 22.5022 19.5 22.5ZM19.5 33.75C18.7583 33.75 18.0333 33.5301 17.4166 33.118C16.7999 32.706 16.3193 32.1203 16.0355 31.4351C15.7516 30.7498 15.6774 29.9958 15.8221 29.2684C15.9668 28.541 16.3239 27.8728 16.8484 27.3484C17.3728 26.8239 18.041 26.4667 18.7684 26.3221C19.4958 26.1774 20.2498 26.2516 20.9351 26.5355C21.6203 26.8193 22.206 27.2999 22.618 27.9166C23.0301 28.5333 23.25 29.2583 23.25 30C23.2489 30.9942 22.8534 31.9474 22.1504 32.6504C21.4474 33.3534 20.4942 33.7489 19.5 33.75Z" fill="black"/>
</svg>
